<?xml version="1.0" standalone="no"?>
<!DOCTYPE svg PUBLIC "-//W3C//DTD SVG 20010904//EN"
 "http://www.w3.org/TR/2001/REC-SVG-20010904/DTD/svg10.dtd">
<svg version="1.0" xmlns="http://www.w3.org/2000/svg"
 width="752.000000pt" height="752.000000pt" viewBox="0 0 752.000000 752.000000"
 preserveAspectRatio="xMidYMid meet">
<metadata>
Created by potrace 1.16, written by Peter Selinger 2001-2019
</metadata>
<g transform="translate(0.000000,752.000000) scale(0.100000,-0.100000)"
fill="#000000" stroke="none">
<path d="M445 7503 c-163 -22 -313 -120 -377 -247 -62 -122 -58 114 -58 -3491
0 -3649 -5 -3370 65 -3512 64 -130 176 -217 314 -243 36 -7 1156 -10 3371 -10
3272 0 3318 0 3394 20 191 49 319 176 355 352 8 38 11 1020 9 3398 l-3 3345
-26 71 c-55 150 -152 251 -287 296 l-67 23 -3330 1 c-1831 1 -3343 -1 -3360
-3z m4465 -962 c124 -11 233 -23 243 -27 20 -7 21 -22 7 -130 -5 -43 -28 -239
-50 -434 -22 -195 -43 -371 -46 -390 l-5 -35 -353 3 c-383 4 -383 4 -444 -52
-55 -49 -59 -70 -66 -368 l-8 -276 64 -7 c35 -3 233 -5 441 -3 l377 3 0 -512
0 -513 -404 0 c-222 0 -418 -3 -435 -6 l-31 -6 0 -1414 0 -1414 -625 0 -625 0
0 1414 0 1413 -52 7 c-29 3 -153 6 -275 6 l-223 0 -4 23 c-3 12 -8 237 -11
500 l-6 477 229 0 c126 0 257 3 291 6 l61 7 0 436 c0 567 12 663 110 866 115
237 300 375 573 426 180 33 883 33 1267 0z"/>
</g>
</svg>
