<?xml version="1.0" standalone="no"?>
<!DOCTYPE svg PUBLIC "-//W3C//DTD SVG 20010904//EN"
 "http://www.w3.org/TR/2001/REC-SVG-20010904/DTD/svg10.dtd">
<svg version="1.0" xmlns="http://www.w3.org/2000/svg"
 width="40px" height="40px" ,
 preserveAspectRatio="xMidYMid meet">
<!-- <metadata>
Created by potrace 1.16, written by Peter Selinger 2001-2019
</metadata> -->
<!-- <g transform="translate(0.000000,512.000000) scale(0.100000,-0.100000)"
fill="#000000" stroke="none"> -->
<!-- <path d="M470 5104 c-176 -46 -326 -168 -405 -329 -70 -142 -65 25 -65 -2215
0 -2245 -5 -2072 67 -2220 50 -104 169 -223 273 -273 148 -72 -25 -67 2220
-67 2245 0 2072 -5 2220 67 104 50 223 169 273 273 72 148 67 -25 67 2220 0
1777 -2 2033 -15 2085 -56 221 -239 404 -460 460 -87 22 -4090 22 -4175 -1z
m3874 -634 c49 -11 85 -37 111 -81 19 -32 20 -55 23 -344 2 -170 1 -333 -3
-362 -8 -62 -37 -109 -85 -137 -34 -20 -50 -21 -390 -21 -340 0 -356 1 -390
21 -48 28 -77 75 -85 137 -4 29 -5 192 -3 362 3 289 4 312 23 344 25 42 62 71
106 81 47 11 645 12 693 0z m-1522 -943 c364 -95 642 -368 734 -723 37 -142
37 -326 0 -468 -146 -558 -743 -884 -1301 -709 -339 106 -603 383 -687 719
-29 117 -31 312 -5 426 83 355 344 633 697 742 120 37 186 45 335 41 97 -2
154 -10 227 -28z m-1981 -537 c100 -22 183 -41 185 -42 1 -2 -6 -38 -16 -81
-33 -136 -43 -260 -37 -421 12 -288 91 -530 251 -771 233 -348 588 -585 1016
-676 144 -31 463 -34 615 -5 559 103 1018 480 1208 991 104 279 124 588 57
874 -11 46 -18 86 -16 88 5 6 345 82 364 83 10 0 12 -220 10 -1142 -3 -1071
-4 -1145 -21 -1175 -9 -18 -32 -41 -50 -50 -30 -17 -131 -18 -1847 -18 -1716
0 -1817 1 -1847 18 -18 9 -41 32 -50 50 -17 30 -18 104 -21 1175 -2 771 1
1142 8 1142 5 0 92 -18 191 -40z"/> -->
</g>
</svg>
