<?xml version="1.0" standalone="no"?>
<!DOCTYPE svg PUBLIC "-//W3C//DTD SVG 20010904//EN"
 "http://www.w3.org/TR/2001/REC-SVG-20010904/DTD/svg10.dtd">
<svg version="1.0" xmlns="http://www.w3.org/2000/svg"
 width="150.000000pt" height="150.000000pt" viewBox="0 0 25.000000 25.000000"
 preserveAspectRatio="xMidYMid meet">
<metadata>
Created by potrace 1.16, written by Peter Selinger 2001-2019
</metadata>
<g transform="translate(0.000000,25.000000) scale(0.001528,-0.001952)"
fill="#000000" stroke="none">
<path d="M5885 12009 c-1850 -74 -3527 -1070 -4490 -2665 -363 -600 -622
-1323 -724 -2019 -43 -295 -54 -457 -55 -800 0 -413 25 -694 95 -1055 264
-1358 1022 -2558 2135 -3382 1331 -985 3044 -1315 4653 -897 1297 336 2432
1144 3184 2264 327 486 586 1055 741 1627 71 262 134 613 168 938 20 196 17
834 -5 1035 -78 706 -258 1327 -556 1923 -656 1309 -1819 2311 -3213 2767
-612 199 -1279 291 -1933 264z m610 -531 c1189 -95 2286 -601 3130 -1443 857
-854 1360 -1954 1454 -3175 21 -275 2 -764 -43 -1083 -113 -795 -464 -1625
-965 -2277 -195 -255 -489 -566 -721 -764 -712 -609 -1596 -1014 -2500 -1145
-316 -46 -783 -64 -1090 -42 -655 48 -1255 211 -1845 501 -976 481 -1769 1270
-2259 2247 -283 567 -454 1180 -506 1821 -10 126 -14 664 -6 737 3 22 10 94
16 160 34 371 143 851 276 1207 208 558 493 1048 883 1513 113 134 389 412
536 540 814 704 1827 1126 2891 1205 145 10 611 9 749 -2z"/>
<path d="M5910 11274 c-368 -23 -638 -62 -935 -135 -854 -211 -1613 -643
-2240 -1274 -764 -768 -1223 -1722 -1356 -2820 -35 -292 -35 -778 1 -1080 113
-941 502 -1831 1111 -2541 1641 -1913 4465 -2227 6474 -719 346 259 683 595
945 940 975 1284 1230 2994 674 4507 -189 514 -456 974 -822 1418 -115 139
-449 475 -587 589 -767 637 -1684 1017 -2655 1101 -128 11 -512 20 -610 14z
m266 -1282 c35 -28 44 -56 44 -139 0 -93 -13 -122 -63 -146 -46 -23 -85 -16
-122 23 -26 27 -27 32 -26 127 1 96 2 99 31 126 36 32 102 37 136 9z m-896
-95 c39 -30 50 -61 50 -140 0 -90 -15 -129 -61 -153 -40 -20 -89 -12 -122 22
-22 22 -26 36 -29 100 -4 96 4 134 37 161 29 26 99 31 125 10z m1773 2 c41
-19 57 -59 57 -147 0 -66 -4 -85 -23 -113 -30 -46 -85 -60 -131 -36 -46 26
-54 45 -56 133 -3 113 -3 113 29 145 32 31 79 38 124 18z m-2225 -413 c15 -8
160 -148 322 -310 l295 -296 305 304 c199 199 315 307 333 311 15 4 39 4 55 1
18 -5 132 -112 334 -314 l308 -307 313 313 c291 290 315 312 347 312 49 -1 75
-18 137 -91 62 -73 126 -176 166 -267 31 -68 77 -238 77 -282 0 -15 3 -42 6
-59 6 -30 9 -31 56 -31 100 0 124 -38 114 -185 -39 -564 -264 -1072 -602
-1356 -376 -316 -975 -492 -1473 -435 -507 59 -914 242 -1198 540 -276 289
-463 755 -491 1226 -10 171 8 206 113 212 48 3 50 4 52 33 16 191 91 394 204
546 101 136 159 171 227 135z m-573 -3752 c110 -28 125 -53 80 -131 -29 -48
-44 -52 -110 -28 -47 17 -152 19 -192 4 -89 -33 -134 -158 -113 -311 13 -90
46 -149 97 -174 52 -25 151 -23 226 6 32 12 64 19 72 16 22 -8 55 -67 55 -98
0 -34 -36 -63 -103 -83 -70 -21 -246 -21 -314 0 -104 31 -186 123 -211 237
-15 68 -17 248 -2 311 27 121 103 208 212 245 78 26 217 29 303 6z m917 -18
c107 -51 170 -151 190 -299 23 -171 -21 -328 -117 -415 -69 -63 -128 -82 -256
-82 -153 0 -238 40 -304 145 -45 69 -65 152 -65 267 0 146 33 247 105 321 72
74 145 98 290 93 84 -2 109 -7 157 -30z m963 13 c11 -17 10 -118 -1 -129 -5
-5 -69 -10 -142 -11 l-132 -1 0 -84 0 -84 130 0 c147 0 150 -2 150 -84 0 -71
-11 -76 -156 -76 l-124 0 0 -160 c0 -183 1 -180 -90 -180 -97 0 -90 -34 -90
414 0 216 3 396 7 399 11 12 441 8 448 -4z m761 0 c10 -17 8 -119 -3 -130 -4
-4 -67 -10 -138 -11 l-130 -3 -3 -82 -3 -83 131 0 c126 0 131 -1 139 -22 12
-33 4 -120 -11 -129 -7 -5 -68 -9 -135 -9 l-123 0 0 -152 c0 -84 -4 -159 -9
-167 -15 -23 -125 -27 -156 -7 l-25 16 0 376 c0 240 4 382 10 395 10 18 23 19
230 19 154 0 221 -3 226 -11z m785 -10 c11 -22 8 -113 -5 -126 -3 -4 -70 -7
-149 -7 l-142 -1 -3 -82 -3 -82 133 -3 133 -3 5 -54 c10 -92 5 -96 -143 -99
l-127 -3 0 -89 0 -90 145 0 c164 0 165 0 165 -84 0 -77 0 -77 -257 -74 -186 2
-225 6 -233 18 -15 24 -13 773 2 788 9 9 76 12 240 12 222 0 228 0 239 -21z
m805 10 c9 -16 6 -121 -5 -132 -4 -4 -73 -9 -152 -10 l-144 -2 -3 -82 -3 -83
135 0 c76 0 137 -4 141 -10 11 -17 7 -120 -5 -135 -9 -11 -43 -15 -138 -17
l-127 -3 0 -85 0 -85 150 -5 150 -5 9 -46 c6 -34 5 -53 -5 -75 l-14 -29 -218
-3 c-139 -1 -225 1 -237 8 -19 10 -20 23 -20 398 0 289 3 391 12 400 16 16
464 17 474 1z m-3631 -1119 c59 -30 66 -52 34 -109 -27 -49 -37 -53 -85 -36
-46 17 -122 19 -158 5 -15 -5 -28 -20 -32 -35 -12 -50 9 -72 128 -130 168 -82
198 -120 198 -247 0 -89 -21 -138 -77 -189 -53 -48 -101 -63 -199 -62 -127 1
-243 43 -259 94 -7 22 35 103 59 112 9 4 41 -6 73 -20 69 -32 146 -36 186 -10
22 14 27 25 27 57 0 35 -4 42 -37 63 -21 13 -69 36 -106 52 -138 58 -193 135
-185 264 3 58 9 78 33 113 55 77 133 109 260 106 73 -3 100 -8 140 -28z m1896
3 c144 -65 221 -229 206 -438 -11 -148 -59 -246 -152 -311 -122 -84 -340 -78
-460 14 -59 45 -109 135 -126 227 -16 87 -6 247 20 316 36 95 118 174 214 205
65 21 240 14 298 -13z m-1351 -2 c5 -11 10 -83 10 -160 l0 -141 150 0 150 0 0
148 c0 102 4 152 12 160 7 7 41 12 83 12 42 0 76 -5 83 -12 9 -9 12 -111 12
-400 0 -442 8 -408 -92 -408 -95 0 -98 5 -98 186 l0 154 -150 0 -150 0 0 -154
c0 -181 -3 -186 -98 -186 -100 0 -92 -34 -92 408 0 289 3 391 12 400 7 7 41
12 85 12 61 0 74 -3 83 -19z m2316 -16 c79 -41 106 -88 112 -196 5 -93 -8
-138 -56 -191 -59 -65 -101 -81 -224 -86 l-108 -4 0 -144 c0 -165 0 -164 -90
-164 -97 0 -90 -33 -90 408 0 297 3 391 13 401 9 9 58 12 198 9 184 -3 186 -3
245 -33z m-4799 -517 c37 -42 36 -47 -9 -101 -67 -81 -76 -92 -59 -82 8 5 50
18 93 31 l78 22 25 -30 c21 -25 32 -48 23 -48 -2 0 -104 -27 -228 -59 l-225
-60 -22 21 c-40 37 -30 54 37 67 l59 12 97 124 c53 69 100 125 104 125 3 0 16
-10 27 -22z m6500 -33 c32 -32 35 -40 30 -77 -3 -22 -19 -60 -36 -83 -37 -52
-38 -55 -8 -55 30 0 61 34 77 83 l12 39 24 -23 c40 -38 29 -94 -31 -152 -67
-65 -133 -58 -208 22 -75 80 -76 160 -3 236 56 58 92 61 143 10z m-237 -185
c21 -21 27 -60 10 -60 -16 0 -29 -43 -19 -62 5 -10 36 -48 69 -85 33 -37 60
-72 60 -77 0 -14 -41 -56 -55 -56 -16 0 -205 205 -205 222 1 24 37 61 54 55
12 -5 16 -1 16 16 0 25 26 67 41 67 5 0 18 -9 29 -20z m-6047 -54 c38 -15 94
-76 103 -111 3 -14 3 -37 -1 -52 -10 -41 -96 -120 -144 -133 -81 -21 -168 25
-195 104 -25 72 12 133 108 181 57 28 83 31 129 11z m5903 -151 c58 -40 55
-122 -7 -187 -39 -41 -39 -57 -1 -58 19 0 71 57 78 86 3 13 10 24 14 24 11 0
40 -47 40 -65 0 -55 -88 -135 -147 -135 -19 0 -47 7 -63 15 -39 20 -96 97
-104 141 -21 111 110 235 190 179z m-5671 -71 c13 -14 21 -31 19 -37 -3 -7
-39 -41 -80 -76 -76 -67 -89 -92 -53 -111 25 -14 38 -6 127 74 34 31 70 56 79
56 22 0 53 -29 53 -49 0 -9 -37 -50 -82 -93 -67 -61 -81 -79 -71 -89 10 -10 9
-16 -4 -31 -36 -40 -106 -6 -106 50 0 18 -5 32 -11 31 -81 -9 -146 76 -102
133 24 33 181 168 194 168 7 0 24 -12 37 -26z m5221 -174 l37 -60 23 38 c28
47 74 70 108 54 12 -5 44 -44 72 -86 41 -65 53 -76 72 -73 16 3 28 -3 39 -19
14 -22 14 -26 -1 -49 -22 -34 -63 -49 -93 -36 -12 6 -43 42 -68 81 -52 78 -57
83 -79 74 -36 -14 -29 -49 28 -138 31 -48 56 -93 56 -100 0 -17 -46 -48 -65
-44 -12 3 -245 349 -245 365 0 14 45 53 61 53 11 0 32 -23 55 -60z m-4986 -35
c18 -9 30 -24 30 -35 0 -15 7 -20 28 -20 33 0 65 -30 57 -52 -3 -8 -17 -21
-30 -28 -21 -11 -27 -11 -43 3 -32 29 -55 19 -132 -58 -41 -41 -79 -75 -84
-75 -15 0 -56 42 -56 58 0 11 185 218 198 221 2 1 16 -6 32 -14z m4795 -242
c73 -149 82 -163 104 -160 20 1 27 -4 35 -27 9 -25 7 -31 -18 -53 -23 -20 -37
-24 -63 -20 -25 4 -33 2 -33 -9 0 -9 -13 -29 -29 -45 -57 -57 -134 -33 -183
58 -34 62 -43 113 -28 157 13 40 62 86 91 86 24 0 24 1 -6 60 -14 27 -25 58
-25 69 0 23 37 53 60 49 8 -2 51 -76 95 -165z m-4422 69 c21 -19 22 -40 1 -64
-16 -16 -16 -18 0 -24 9 -3 16 -12 16 -19 0 -21 -38 -48 -60 -42 -16 4 -32 -8
-70 -54 -55 -66 -58 -74 -33 -88 17 -9 16 -11 -1 -30 -40 -45 -116 -9 -116 55
0 25 14 49 60 105 39 49 56 77 50 84 -13 16 16 55 42 55 11 0 31 12 44 26 24
25 33 25 67 -4z m185 -193 c47 -23 82 -69 82 -107 0 -14 -15 -39 -34 -58 -42
-42 -82 -44 -152 -9 -27 14 -50 25 -51 25 -2 0 -3 -11 -3 -25 0 -30 50 -65 92
-65 37 0 42 -13 17 -44 -25 -32 -57 -33 -114 -6 -60 29 -87 61 -92 112 -4 36
1 52 29 98 57 94 137 122 226 79z m3957 -55 c53 -57 21 -150 -64 -189 -32 -14
-39 -21 -30 -32 21 -24 58 -14 103 27 l43 40 14 -31 c10 -27 10 -36 -2 -58
-18 -32 -104 -80 -144 -81 -106 0 -186 177 -122 271 50 75 156 102 202 53z
m-3765 -49 c26 -14 30 -21 30 -60 0 -25 2 -45 5 -45 2 0 25 10 50 22 43 21 46
21 81 5 19 -10 34 -22 32 -28 -2 -6 -39 -29 -82 -51 l-78 -41 7 -82 c5 -54 4
-85 -3 -89 -6 -3 -26 1 -46 10 -30 15 -35 23 -41 65 l-7 48 -39 -19 c-21 -11
-45 -20 -54 -20 -25 0 -76 30 -70 41 4 5 42 27 86 49 l79 40 -6 85 c-8 95 -3
101 56 70z m345 -69 c18 -13 18 -26 0 -68 -5 -13 -2 -18 9 -18 9 0 16 -8 16
-18 0 -25 -35 -56 -55 -48 -11 4 -25 -13 -52 -69 -36 -72 -37 -75 -18 -89 18
-13 18 -15 2 -40 -21 -31 -54 -34 -89 -6 -42 33 -41 64 6 155 31 61 40 86 32
97 -12 20 19 72 39 64 8 -3 18 7 25 25 14 33 52 40 85 15z m3136 2 c1 -14 -2
-52 -5 -55 -1 -1 -17 -5 -36 -8 -71 -12 -94 -76 -53 -147 26 -45 56 -47 105
-7 44 35 58 29 58 -22 0 -43 -81 -99 -145 -99 -70 0 -126 75 -133 180 -5 66
21 112 83 147 44 25 124 32 126 11z m-624 -203 c37 -238 35 -230 61 -228 19 2
22 -2 22 -31 0 -38 -12 -51 -56 -60 -22 -5 -37 -2 -53 11 -19 15 -27 45 -51
193 -37 217 -37 238 -7 250 12 5 31 8 42 7 18 -2 22 -18 42 -142z m358 -10
c24 -105 28 -114 48 -112 18 2 23 -4 25 -30 3 -27 -2 -34 -27 -47 -36 -19 -62
-20 -80 -3 -11 10 -14 9 -18 -1 -17 -47 -85 -72 -132 -47 -64 33 -103 181 -67
257 21 43 71 72 113 66 22 -3 34 1 42 14 7 11 23 18 40 18 29 0 29 -1 56 -115z
m-2478 4 c37 -18 44 -25 41 -47 -5 -38 -31 -50 -67 -29 -58 34 -95 18 -126
-56 -19 -47 -19 -53 5 -77 15 -15 33 -20 70 -20 28 0 50 -2 50 -5 0 -4 -7 -19
-15 -35 -14 -27 -20 -30 -66 -30 -101 0 -154 43 -153 124 1 62 29 121 79 164
30 27 44 32 87 32 32 0 68 -8 95 -21z m990 0 c8 -8 10 -35 6 -81 -6 -69 -6
-70 15 -59 55 29 122 2 146 -61 32 -78 -2 -199 -67 -238 -35 -22 -87 -26 -119
-9 -14 8 -23 8 -31 0 -16 -16 -67 -13 -73 4 -4 8 1 84 10 168 9 83 19 177 23
207 3 30 10 61 15 68 13 15 60 16 75 1z m-761 -55 c19 -9 34 -20 34 -25 0 -5
8 -4 18 2 22 14 72 4 72 -14 0 -6 -14 -59 -32 -116 -31 -100 -31 -104 -13
-117 15 -12 17 -18 7 -39 -16 -35 -82 -36 -110 -1 -13 17 -23 22 -33 15 -29
-18 -94 -10 -118 15 -75 79 13 292 122 295 11 1 34 -6 53 -15z m1713 -9 c36
-31 52 -74 52 -147 2 -103 -66 -180 -144 -164 l-30 6 7 -64 c6 -58 4 -66 -13
-76 -11 -5 -31 -10 -45 -10 -31 0 -32 2 -46 175 -11 126 -15 157 -26 221 -5
25 -1 32 21 42 32 15 65 15 65 1 0 -6 14 1 31 15 40 34 88 34 128 1z m-1443
-49 c5 -12 10 -12 39 0 19 7 40 12 47 10 7 -3 25 -7 39 -10 45 -10 53 -48 30
-151 -20 -92 -20 -105 5 -105 17 0 18 -9 4 -44 -8 -22 -16 -26 -49 -26 -74 0
-89 36 -62 154 16 75 17 87 4 98 -12 10 -20 9 -41 -3 -21 -11 -29 -28 -42 -89
-31 -139 -26 -130 -70 -130 -21 0 -42 5 -46 11 -5 9 33 220 52 287 5 17 83 16
90 -2z m949 -10 c113 -48 45 -196 -90 -196 -43 0 -48 -25 -9 -42 21 -10 35 -9
74 5 62 22 60 23 60 -17 0 -40 -12 -51 -71 -67 -59 -16 -112 -5 -151 30 -28
25 -32 36 -36 94 -7 108 23 163 105 192 49 18 76 18 118 1z"/>
<path d="M5820 8944 c-162 -162 -307 -302 -322 -310 -32 -17 -71 -18 -101 -3
-12 6 -156 144 -319 307 -284 283 -298 296 -313 277 -8 -11 -37 -65 -64 -120
-50 -101 -75 -184 -87 -285 l-6 -56 134 -26 c262 -52 526 -159 733 -295 132
-88 318 -273 404 -403 70 -106 152 -269 202 -404 18 -48 35 -82 37 -75 2 8 20
57 39 109 218 581 666 938 1346 1072 l107 21 0 41 c0 102 -83 333 -149 416
l-20 25 -308 -307 -309 -308 -44 0 -44 0 -311 310 -310 310 -295 -296z"/>
<path d="M4454 8483 c19 -187 98 -465 182 -642 216 -456 613 -721 1229 -821
70 -12 129 -20 131 -18 5 6 -24 190 -46 292 -28 128 -84 293 -141 415 -121
257 -305 460 -548 600 -167 98 -418 182 -656 221 -172 28 -159 32 -151 -47z"/>
<path d="M7605 8529 c-496 -87 -865 -300 -1080 -623 -143 -215 -259 -552 -291
-844 -7 -63 -7 -63 17 -58 13 3 47 8 74 11 181 22 446 97 610 174 212 99 426
279 543 456 137 207 251 524 286 800 4 28 9 62 12 78 5 25 3 27 -28 26 -18 0
-82 -9 -143 -20z"/>
<path d="M4910 5572 c-39 -19 -75 -68 -90 -121 -15 -53 -12 -190 5 -247 25
-84 97 -135 182 -129 115 9 168 92 168 265 0 83 -4 102 -27 151 -20 40 -38 61
-67 77 -48 27 -122 29 -171 4z"/>
<path d="M6502 4463 c-65 -32 -102 -117 -102 -238 0 -142 50 -233 142 -257 36
-9 55 -9 87 0 98 30 136 101 136 257 0 87 -3 107 -27 157 -21 44 -35 61 -67
77 -49 25 -123 27 -169 4z"/>
<path d="M7441 4375 l2 -95 74 0 c65 0 77 3 98 25 19 18 25 35 25 70 0 35 -6
52 -25 70 -21 22 -33 25 -100 25 l-76 0 2 -95z"/>
<path d="M3055 3719 c-71 -41 -96 -100 -50 -121 32 -15 75 4 116 49 27 32 29
37 16 56 -16 25 -53 32 -82 16z"/>
</g>
</svg>
