<?xml version="1.0" standalone="no"?>
<!DOCTYPE svg PUBLIC "-//W3C//DTD SVG 20010904//EN"
 "http://www.w3.org/TR/2001/REC-SVG-20010904/DTD/svg10.dtd">
<svg version="1.0" xmlns="http://www.w3.org/2000/svg"
 width="512.000000pt" height="512.000000pt" viewBox="0 0 512.000000 512.000000"
 preserveAspectRatio="xMidYMid meet">
<metadata>
Created by potrace 1.16, written by Peter Selinger 2001-2019
</metadata>
<g transform="translate(0.000000,512.000000) scale(0.100000,-0.100000)"
fill="#000000" stroke="none">
<path d="M2310 5113 c-485 -49 -947 -234 -1330 -531 -117 -91 -316 -287 -413
-407 -279 -346 -461 -750 -539 -1199 -29 -172 -37 -551 -14 -726 43 -322 122
-581 263 -858 118 -233 256 -424 448 -621 414 -425 923 -678 1525 -757 174
-22 553 -15 726 15 262 45 485 117 719 232 248 122 448 263 654 464 397 387
647 864 742 1419 30 174 37 541 15 726 -92 751 -507 1419 -1141 1836 -329 216
-695 350 -1085 399 -113 14 -466 19 -570 8z m355 -1283 c312 -30 588 -161 798
-379 143 -149 236 -300 296 -484 84 -255 84 -539 1 -789 -149 -447 -529 -772
-994 -853 -227 -39 -502 -5 -705 86 l-63 29 -316 -75 c-173 -41 -325 -75 -337
-75 -53 0 -53 9 19 358 36 180 66 334 66 343 0 9 -13 45 -29 80 -91 202 -125
487 -86 715 97 553 559 984 1120 1043 111 12 118 12 230 1z"/>
<path d="M2435 3559 c-254 -34 -494 -168 -650 -362 -165 -205 -248 -493 -215
-746 15 -120 38 -199 95 -325 l46 -103 -41 -193 c-22 -106 -38 -196 -35 -199
3 -2 92 16 198 41 l192 46 83 -39 c288 -134 577 -142 855 -23 224 96 419 292
514 517 59 139 77 232 77 397 0 119 -4 161 -23 234 -113 439 -476 738 -922
760 -57 2 -135 0 -174 -5z m-238 -411 c22 -25 133 -269 133 -294 0 -20 -16
-50 -57 -103 -46 -61 -44 -94 11 -167 24 -33 74 -88 112 -124 146 -139 255
-210 321 -210 37 0 48 6 98 55 43 42 63 55 86 55 39 0 265 -65 296 -85 65 -43
46 -112 -58 -217 -78 -78 -128 -98 -248 -98 -214 0 -453 130 -691 376 -166
172 -244 308 -270 469 -15 92 0 157 51 235 80 119 166 162 216 108z"/>
</g>
</svg>
